G04 EAGLE Gerber RS-274X export*
G75*
%MOMM*%
%FSLAX34Y34*%
%LPD*%
%AMOC8*
5,1,8,0,0,1.08239X$1,22.5*%
G01*
%ADD10C,0.222250*%
%ADD11C,0.158750*%
%ADD12R,0.500000X1.500000*%
%ADD13R,1.500000X0.500000*%
%ADD14C,0.040638*%
%ADD15C,0.152400*%
%ADD16R,1.700000X0.700000*%
%ADD17C,0.500000*%
%ADD18R,0.400000X1.200000*%
%ADD19R,1.050000X2.200000*%
%ADD20R,1.000000X0.800000*%
%ADD21R,1.550000X0.600000*%
%ADD22R,1.800000X1.200000*%
%ADD23R,0.870000X2.000000*%


D10*
X94294Y61356D02*
X87626Y61356D01*
X87626Y68024D01*
X94294Y68024D01*
X94294Y61356D01*
X94294Y63468D02*
X87626Y63468D01*
X87626Y65580D02*
X94294Y65580D01*
X94294Y67692D02*
X87626Y67692D01*
X102866Y61356D02*
X109534Y61356D01*
X102866Y61356D02*
X102866Y68024D01*
X109534Y68024D01*
X109534Y61356D01*
X109534Y63468D02*
X102866Y63468D01*
X102866Y65580D02*
X109534Y65580D01*
X109534Y67692D02*
X102866Y67692D01*
X91062Y118608D02*
X84394Y118608D01*
X84394Y125276D01*
X91062Y125276D01*
X91062Y118608D01*
X91062Y120720D02*
X84394Y120720D01*
X84394Y122832D02*
X91062Y122832D01*
X91062Y124944D02*
X84394Y124944D01*
X99634Y118608D02*
X106302Y118608D01*
X99634Y118608D02*
X99634Y125276D01*
X106302Y125276D01*
X106302Y118608D01*
X106302Y120720D02*
X99634Y120720D01*
X99634Y122832D02*
X106302Y122832D01*
X106302Y124944D02*
X99634Y124944D01*
X62854Y146226D02*
X62854Y152894D01*
X62854Y146226D02*
X56186Y146226D01*
X56186Y152894D01*
X62854Y152894D01*
X62854Y148338D02*
X56186Y148338D01*
X56186Y150450D02*
X62854Y150450D01*
X62854Y152562D02*
X56186Y152562D01*
X62854Y161466D02*
X62854Y168134D01*
X62854Y161466D02*
X56186Y161466D01*
X56186Y168134D01*
X62854Y168134D01*
X62854Y163578D02*
X56186Y163578D01*
X56186Y165690D02*
X62854Y165690D01*
X62854Y167802D02*
X56186Y167802D01*
X66320Y316194D02*
X66320Y322862D01*
X72988Y322862D01*
X72988Y316194D01*
X66320Y316194D01*
X66320Y318306D02*
X72988Y318306D01*
X72988Y320418D02*
X66320Y320418D01*
X66320Y322530D02*
X72988Y322530D01*
X66320Y307622D02*
X66320Y300954D01*
X66320Y307622D02*
X72988Y307622D01*
X72988Y300954D01*
X66320Y300954D01*
X66320Y303066D02*
X72988Y303066D01*
X72988Y305178D02*
X66320Y305178D01*
X66320Y307290D02*
X72988Y307290D01*
D11*
X160052Y130714D02*
X164814Y130714D01*
X164814Y124302D01*
X160052Y124302D01*
X160052Y130714D01*
X160052Y125811D02*
X164814Y125811D01*
X164814Y127320D02*
X160052Y127320D01*
X160052Y128829D02*
X164814Y128829D01*
X164814Y130338D02*
X160052Y130338D01*
X150844Y130714D02*
X146082Y130714D01*
X150844Y130714D02*
X150844Y124302D01*
X146082Y124302D01*
X146082Y130714D01*
X146082Y125811D02*
X150844Y125811D01*
X150844Y127320D02*
X146082Y127320D01*
X146082Y128829D02*
X150844Y128829D01*
X150844Y130338D02*
X146082Y130338D01*
D12*
X81920Y168060D03*
X89920Y168060D03*
X97920Y168060D03*
X105920Y168060D03*
X113920Y168060D03*
X121920Y168060D03*
X129920Y168060D03*
X137920Y168060D03*
X145920Y168060D03*
X153920Y168060D03*
X161920Y168060D03*
D13*
X179920Y186060D03*
X179920Y194060D03*
X179920Y202060D03*
X179920Y210060D03*
X179920Y218060D03*
X179920Y226060D03*
X179920Y234060D03*
X179920Y242060D03*
X179920Y250060D03*
X179920Y258060D03*
X179920Y266060D03*
D12*
X161920Y284060D03*
X153920Y284060D03*
X145920Y284060D03*
X137920Y284060D03*
X129920Y284060D03*
X121920Y284060D03*
X113920Y284060D03*
X105920Y284060D03*
X97920Y284060D03*
X89920Y284060D03*
X81920Y284060D03*
D13*
X63920Y266060D03*
X63920Y258060D03*
X63920Y250060D03*
X63920Y242060D03*
X63920Y234060D03*
X63920Y226060D03*
X63920Y218060D03*
X63920Y210060D03*
X63920Y202060D03*
X63920Y194060D03*
X63920Y186060D03*
D14*
X114263Y34620D02*
X117921Y34620D01*
X114263Y34620D02*
X114263Y47676D01*
X117921Y47676D01*
X117921Y34620D01*
X117921Y35006D02*
X114263Y35006D01*
X114263Y35392D02*
X117921Y35392D01*
X117921Y35778D02*
X114263Y35778D01*
X114263Y36164D02*
X117921Y36164D01*
X117921Y36550D02*
X114263Y36550D01*
X114263Y36936D02*
X117921Y36936D01*
X117921Y37322D02*
X114263Y37322D01*
X114263Y37708D02*
X117921Y37708D01*
X117921Y38094D02*
X114263Y38094D01*
X114263Y38480D02*
X117921Y38480D01*
X117921Y38866D02*
X114263Y38866D01*
X114263Y39252D02*
X117921Y39252D01*
X117921Y39638D02*
X114263Y39638D01*
X114263Y40024D02*
X117921Y40024D01*
X117921Y40410D02*
X114263Y40410D01*
X114263Y40796D02*
X117921Y40796D01*
X117921Y41182D02*
X114263Y41182D01*
X114263Y41568D02*
X117921Y41568D01*
X117921Y41954D02*
X114263Y41954D01*
X114263Y42340D02*
X117921Y42340D01*
X117921Y42726D02*
X114263Y42726D01*
X114263Y43112D02*
X117921Y43112D01*
X117921Y43498D02*
X114263Y43498D01*
X114263Y43884D02*
X117921Y43884D01*
X117921Y44270D02*
X114263Y44270D01*
X114263Y44656D02*
X117921Y44656D01*
X117921Y45042D02*
X114263Y45042D01*
X114263Y45428D02*
X117921Y45428D01*
X117921Y45814D02*
X114263Y45814D01*
X114263Y46200D02*
X117921Y46200D01*
X117921Y46586D02*
X114263Y46586D01*
X114263Y46972D02*
X117921Y46972D01*
X117921Y47358D02*
X114263Y47358D01*
X120867Y34620D02*
X124525Y34620D01*
X120867Y34620D02*
X120867Y47676D01*
X124525Y47676D01*
X124525Y34620D01*
X124525Y35006D02*
X120867Y35006D01*
X120867Y35392D02*
X124525Y35392D01*
X124525Y35778D02*
X120867Y35778D01*
X120867Y36164D02*
X124525Y36164D01*
X124525Y36550D02*
X120867Y36550D01*
X120867Y36936D02*
X124525Y36936D01*
X124525Y37322D02*
X120867Y37322D01*
X120867Y37708D02*
X124525Y37708D01*
X124525Y38094D02*
X120867Y38094D01*
X120867Y38480D02*
X124525Y38480D01*
X124525Y38866D02*
X120867Y38866D01*
X120867Y39252D02*
X124525Y39252D01*
X124525Y39638D02*
X120867Y39638D01*
X120867Y40024D02*
X124525Y40024D01*
X124525Y40410D02*
X120867Y40410D01*
X120867Y40796D02*
X124525Y40796D01*
X124525Y41182D02*
X120867Y41182D01*
X120867Y41568D02*
X124525Y41568D01*
X124525Y41954D02*
X120867Y41954D01*
X120867Y42340D02*
X124525Y42340D01*
X124525Y42726D02*
X120867Y42726D01*
X120867Y43112D02*
X124525Y43112D01*
X124525Y43498D02*
X120867Y43498D01*
X120867Y43884D02*
X124525Y43884D01*
X124525Y44270D02*
X120867Y44270D01*
X120867Y44656D02*
X124525Y44656D01*
X124525Y45042D02*
X120867Y45042D01*
X120867Y45428D02*
X124525Y45428D01*
X124525Y45814D02*
X120867Y45814D01*
X120867Y46200D02*
X124525Y46200D01*
X124525Y46586D02*
X120867Y46586D01*
X120867Y46972D02*
X124525Y46972D01*
X124525Y47358D02*
X120867Y47358D01*
X127471Y34620D02*
X131129Y34620D01*
X127471Y34620D02*
X127471Y47676D01*
X131129Y47676D01*
X131129Y34620D01*
X131129Y35006D02*
X127471Y35006D01*
X127471Y35392D02*
X131129Y35392D01*
X131129Y35778D02*
X127471Y35778D01*
X127471Y36164D02*
X131129Y36164D01*
X131129Y36550D02*
X127471Y36550D01*
X127471Y36936D02*
X131129Y36936D01*
X131129Y37322D02*
X127471Y37322D01*
X127471Y37708D02*
X131129Y37708D01*
X131129Y38094D02*
X127471Y38094D01*
X127471Y38480D02*
X131129Y38480D01*
X131129Y38866D02*
X127471Y38866D01*
X127471Y39252D02*
X131129Y39252D01*
X131129Y39638D02*
X127471Y39638D01*
X127471Y40024D02*
X131129Y40024D01*
X131129Y40410D02*
X127471Y40410D01*
X127471Y40796D02*
X131129Y40796D01*
X131129Y41182D02*
X127471Y41182D01*
X127471Y41568D02*
X131129Y41568D01*
X131129Y41954D02*
X127471Y41954D01*
X127471Y42340D02*
X131129Y42340D01*
X131129Y42726D02*
X127471Y42726D01*
X127471Y43112D02*
X131129Y43112D01*
X131129Y43498D02*
X127471Y43498D01*
X127471Y43884D02*
X131129Y43884D01*
X131129Y44270D02*
X127471Y44270D01*
X127471Y44656D02*
X131129Y44656D01*
X131129Y45042D02*
X127471Y45042D01*
X127471Y45428D02*
X131129Y45428D01*
X131129Y45814D02*
X127471Y45814D01*
X127471Y46200D02*
X131129Y46200D01*
X131129Y46586D02*
X127471Y46586D01*
X127471Y46972D02*
X131129Y46972D01*
X131129Y47358D02*
X127471Y47358D01*
X134075Y34620D02*
X137733Y34620D01*
X134075Y34620D02*
X134075Y47676D01*
X137733Y47676D01*
X137733Y34620D01*
X137733Y35006D02*
X134075Y35006D01*
X134075Y35392D02*
X137733Y35392D01*
X137733Y35778D02*
X134075Y35778D01*
X134075Y36164D02*
X137733Y36164D01*
X137733Y36550D02*
X134075Y36550D01*
X134075Y36936D02*
X137733Y36936D01*
X137733Y37322D02*
X134075Y37322D01*
X134075Y37708D02*
X137733Y37708D01*
X137733Y38094D02*
X134075Y38094D01*
X134075Y38480D02*
X137733Y38480D01*
X137733Y38866D02*
X134075Y38866D01*
X134075Y39252D02*
X137733Y39252D01*
X137733Y39638D02*
X134075Y39638D01*
X134075Y40024D02*
X137733Y40024D01*
X137733Y40410D02*
X134075Y40410D01*
X134075Y40796D02*
X137733Y40796D01*
X137733Y41182D02*
X134075Y41182D01*
X134075Y41568D02*
X137733Y41568D01*
X137733Y41954D02*
X134075Y41954D01*
X134075Y42340D02*
X137733Y42340D01*
X137733Y42726D02*
X134075Y42726D01*
X134075Y43112D02*
X137733Y43112D01*
X137733Y43498D02*
X134075Y43498D01*
X134075Y43884D02*
X137733Y43884D01*
X137733Y44270D02*
X134075Y44270D01*
X134075Y44656D02*
X137733Y44656D01*
X137733Y45042D02*
X134075Y45042D01*
X134075Y45428D02*
X137733Y45428D01*
X137733Y45814D02*
X134075Y45814D01*
X134075Y46200D02*
X137733Y46200D01*
X137733Y46586D02*
X134075Y46586D01*
X134075Y46972D02*
X137733Y46972D01*
X137733Y47358D02*
X134075Y47358D01*
X140679Y34620D02*
X144337Y34620D01*
X140679Y34620D02*
X140679Y47676D01*
X144337Y47676D01*
X144337Y34620D01*
X144337Y35006D02*
X140679Y35006D01*
X140679Y35392D02*
X144337Y35392D01*
X144337Y35778D02*
X140679Y35778D01*
X140679Y36164D02*
X144337Y36164D01*
X144337Y36550D02*
X140679Y36550D01*
X140679Y36936D02*
X144337Y36936D01*
X144337Y37322D02*
X140679Y37322D01*
X140679Y37708D02*
X144337Y37708D01*
X144337Y38094D02*
X140679Y38094D01*
X140679Y38480D02*
X144337Y38480D01*
X144337Y38866D02*
X140679Y38866D01*
X140679Y39252D02*
X144337Y39252D01*
X144337Y39638D02*
X140679Y39638D01*
X140679Y40024D02*
X144337Y40024D01*
X144337Y40410D02*
X140679Y40410D01*
X140679Y40796D02*
X144337Y40796D01*
X144337Y41182D02*
X140679Y41182D01*
X140679Y41568D02*
X144337Y41568D01*
X144337Y41954D02*
X140679Y41954D01*
X140679Y42340D02*
X144337Y42340D01*
X144337Y42726D02*
X140679Y42726D01*
X140679Y43112D02*
X144337Y43112D01*
X144337Y43498D02*
X140679Y43498D01*
X140679Y43884D02*
X144337Y43884D01*
X144337Y44270D02*
X140679Y44270D01*
X140679Y44656D02*
X144337Y44656D01*
X144337Y45042D02*
X140679Y45042D01*
X140679Y45428D02*
X144337Y45428D01*
X144337Y45814D02*
X140679Y45814D01*
X140679Y46200D02*
X144337Y46200D01*
X144337Y46586D02*
X140679Y46586D01*
X140679Y46972D02*
X144337Y46972D01*
X144337Y47358D02*
X140679Y47358D01*
D15*
X125998Y7366D02*
X112282Y7366D01*
X112282Y21082D01*
X125998Y21082D01*
X125998Y7366D01*
X125998Y8814D02*
X112282Y8814D01*
X112282Y10262D02*
X125998Y10262D01*
X125998Y11710D02*
X112282Y11710D01*
X112282Y13158D02*
X125998Y13158D01*
X125998Y14606D02*
X112282Y14606D01*
X112282Y16054D02*
X125998Y16054D01*
X125998Y17502D02*
X112282Y17502D01*
X112282Y18950D02*
X125998Y18950D01*
X125998Y20398D02*
X112282Y20398D01*
X132602Y7366D02*
X146318Y7366D01*
X132602Y7366D02*
X132602Y21082D01*
X146318Y21082D01*
X146318Y7366D01*
X146318Y8814D02*
X132602Y8814D01*
X132602Y10262D02*
X146318Y10262D01*
X146318Y11710D02*
X132602Y11710D01*
X132602Y13158D02*
X146318Y13158D01*
X146318Y14606D02*
X132602Y14606D01*
X132602Y16054D02*
X146318Y16054D01*
X146318Y17502D02*
X132602Y17502D01*
X132602Y18950D02*
X146318Y18950D01*
X146318Y20398D02*
X132602Y20398D01*
D16*
X204978Y238822D03*
X204978Y226822D03*
X204978Y214822D03*
D10*
X145774Y86844D02*
X145774Y80176D01*
X139106Y80176D01*
X139106Y86844D01*
X145774Y86844D01*
X145774Y82288D02*
X139106Y82288D01*
X139106Y84400D02*
X145774Y84400D01*
X145774Y86512D02*
X139106Y86512D01*
X145774Y95416D02*
X145774Y102084D01*
X145774Y95416D02*
X139106Y95416D01*
X139106Y102084D01*
X145774Y102084D01*
X145774Y97528D02*
X139106Y97528D01*
X139106Y99640D02*
X145774Y99640D01*
X145774Y101752D02*
X139106Y101752D01*
X160694Y86954D02*
X160694Y80286D01*
X154026Y80286D01*
X154026Y86954D01*
X160694Y86954D01*
X160694Y82398D02*
X154026Y82398D01*
X154026Y84510D02*
X160694Y84510D01*
X160694Y86622D02*
X154026Y86622D01*
X160694Y95526D02*
X160694Y102194D01*
X160694Y95526D02*
X154026Y95526D01*
X154026Y102194D01*
X160694Y102194D01*
X160694Y97638D02*
X154026Y97638D01*
X154026Y99750D02*
X160694Y99750D01*
X160694Y101862D02*
X154026Y101862D01*
X86746Y101474D02*
X86746Y94806D01*
X86746Y101474D02*
X93414Y101474D01*
X93414Y94806D01*
X86746Y94806D01*
X86746Y96918D02*
X93414Y96918D01*
X93414Y99030D02*
X86746Y99030D01*
X86746Y101142D02*
X93414Y101142D01*
X86746Y86234D02*
X86746Y79566D01*
X86746Y86234D02*
X93414Y86234D01*
X93414Y79566D01*
X86746Y79566D01*
X86746Y81678D02*
X93414Y81678D01*
X93414Y83790D02*
X86746Y83790D01*
X86746Y85902D02*
X93414Y85902D01*
X208290Y286544D02*
X208290Y293212D01*
X208290Y286544D02*
X201622Y286544D01*
X201622Y293212D01*
X208290Y293212D01*
X208290Y288656D02*
X201622Y288656D01*
X201622Y290768D02*
X208290Y290768D01*
X208290Y292880D02*
X201622Y292880D01*
X208290Y301784D02*
X208290Y308452D01*
X208290Y301784D02*
X201622Y301784D01*
X201622Y308452D01*
X208290Y308452D01*
X208290Y303896D02*
X201622Y303896D01*
X201622Y306008D02*
X208290Y306008D01*
X208290Y308120D02*
X201622Y308120D01*
X184086Y138184D02*
X184086Y131516D01*
X184086Y138184D02*
X190754Y138184D01*
X190754Y131516D01*
X184086Y131516D01*
X184086Y133628D02*
X190754Y133628D01*
X190754Y135740D02*
X184086Y135740D01*
X184086Y137852D02*
X190754Y137852D01*
X184086Y122944D02*
X184086Y116276D01*
X184086Y122944D02*
X190754Y122944D01*
X190754Y116276D01*
X184086Y116276D01*
X184086Y118388D02*
X190754Y118388D01*
X190754Y120500D02*
X184086Y120500D01*
X184086Y122612D02*
X190754Y122612D01*
X166402Y145320D02*
X159734Y145320D01*
X166402Y145320D02*
X166402Y138652D01*
X159734Y138652D01*
X159734Y145320D01*
X159734Y140764D02*
X166402Y140764D01*
X166402Y142876D02*
X159734Y142876D01*
X159734Y144988D02*
X166402Y144988D01*
X151162Y145320D02*
X144494Y145320D01*
X151162Y145320D02*
X151162Y138652D01*
X144494Y138652D01*
X144494Y145320D01*
X144494Y140764D02*
X151162Y140764D01*
X151162Y142876D02*
X144494Y142876D01*
X144494Y144988D02*
X151162Y144988D01*
D17*
X52800Y481520D02*
X45800Y481520D01*
X45800Y486520D01*
X52800Y486520D01*
X52800Y481520D01*
X52800Y486270D02*
X45800Y486270D01*
X45800Y461520D02*
X52800Y461520D01*
X45800Y461520D02*
X45800Y466520D01*
X52800Y466520D01*
X52800Y461520D01*
X52800Y466270D02*
X45800Y466270D01*
X45800Y441520D02*
X52800Y441520D01*
X45800Y441520D02*
X45800Y446520D01*
X52800Y446520D01*
X52800Y441520D01*
X52800Y446270D02*
X45800Y446270D01*
X45800Y421520D02*
X52800Y421520D01*
X45800Y421520D02*
X45800Y426520D01*
X52800Y426520D01*
X52800Y421520D01*
X52800Y426270D02*
X45800Y426270D01*
X45800Y401520D02*
X52800Y401520D01*
X45800Y401520D02*
X45800Y406520D01*
X52800Y406520D01*
X52800Y401520D01*
X52800Y406270D02*
X45800Y406270D01*
X45800Y381520D02*
X52800Y381520D01*
X45800Y381520D02*
X45800Y386520D01*
X52800Y386520D01*
X52800Y381520D01*
X52800Y386270D02*
X45800Y386270D01*
X45800Y361520D02*
X52800Y361520D01*
X45800Y361520D02*
X45800Y366520D01*
X52800Y366520D01*
X52800Y361520D01*
X52800Y366270D02*
X45800Y366270D01*
X45800Y341520D02*
X52800Y341520D01*
X45800Y341520D02*
X45800Y346520D01*
X52800Y346520D01*
X52800Y341520D01*
X52800Y346270D02*
X45800Y346270D01*
X205800Y346520D02*
X212800Y346520D01*
X212800Y341520D01*
X205800Y341520D01*
X205800Y346520D01*
X205800Y346270D02*
X212800Y346270D01*
X212800Y366520D02*
X205800Y366520D01*
X212800Y366520D02*
X212800Y361520D01*
X205800Y361520D01*
X205800Y366520D01*
X205800Y366270D02*
X212800Y366270D01*
X212800Y386520D02*
X205800Y386520D01*
X212800Y386520D02*
X212800Y381520D01*
X205800Y381520D01*
X205800Y386520D01*
X205800Y386270D02*
X212800Y386270D01*
X212800Y406520D02*
X205800Y406520D01*
X212800Y406520D02*
X212800Y401520D01*
X205800Y401520D01*
X205800Y406520D01*
X205800Y406270D02*
X212800Y406270D01*
X212800Y426520D02*
X205800Y426520D01*
X212800Y426520D02*
X212800Y421520D01*
X205800Y421520D01*
X205800Y426520D01*
X205800Y426270D02*
X212800Y426270D01*
X212800Y446520D02*
X205800Y446520D01*
X212800Y446520D02*
X212800Y441520D01*
X205800Y441520D01*
X205800Y446520D01*
X205800Y446270D02*
X212800Y446270D01*
X212800Y466520D02*
X205800Y466520D01*
X212800Y466520D02*
X212800Y461520D01*
X205800Y461520D01*
X205800Y466520D01*
X205800Y466270D02*
X212800Y466270D01*
X212800Y486520D02*
X205800Y486520D01*
X212800Y486520D02*
X212800Y481520D01*
X205800Y481520D01*
X205800Y486520D01*
X205800Y486270D02*
X212800Y486270D01*
D18*
X106170Y80749D03*
X115670Y80749D03*
X125170Y80749D03*
X125170Y106751D03*
X106170Y106751D03*
D19*
X47980Y523710D03*
X20480Y523710D03*
D20*
X34230Y508460D03*
D10*
X32676Y135174D02*
X39344Y135174D01*
X39344Y128506D01*
X32676Y128506D01*
X32676Y135174D01*
X32676Y130618D02*
X39344Y130618D01*
X39344Y132730D02*
X32676Y132730D01*
X32676Y134842D02*
X39344Y134842D01*
X24104Y135174D02*
X17436Y135174D01*
X24104Y135174D02*
X24104Y128506D01*
X17436Y128506D01*
X17436Y135174D01*
X17436Y130618D02*
X24104Y130618D01*
X24104Y132730D02*
X17436Y132730D01*
X17436Y134842D02*
X24104Y134842D01*
X32466Y149554D02*
X39134Y149554D01*
X39134Y142886D01*
X32466Y142886D01*
X32466Y149554D01*
X32466Y144998D02*
X39134Y144998D01*
X39134Y147110D02*
X32466Y147110D01*
X32466Y149222D02*
X39134Y149222D01*
X23894Y149554D02*
X17226Y149554D01*
X23894Y149554D02*
X23894Y142886D01*
X17226Y142886D01*
X17226Y149554D01*
X17226Y144998D02*
X23894Y144998D01*
X23894Y147110D02*
X17226Y147110D01*
X17226Y149222D02*
X23894Y149222D01*
D21*
X218600Y73000D03*
X218600Y83000D03*
X218600Y93000D03*
X218600Y103000D03*
D22*
X243850Y116000D03*
X243850Y60000D03*
D21*
X40000Y103000D03*
X40000Y93000D03*
X40000Y83000D03*
X40000Y73000D03*
D22*
X14750Y60000D03*
X14750Y116000D03*
D23*
X201620Y140140D03*
X247620Y140140D03*
D10*
X208242Y180806D02*
X208242Y187474D01*
X208242Y180806D02*
X201574Y180806D01*
X201574Y187474D01*
X208242Y187474D01*
X208242Y182918D02*
X201574Y182918D01*
X201574Y185030D02*
X208242Y185030D01*
X208242Y187142D02*
X201574Y187142D01*
X208242Y196046D02*
X208242Y202714D01*
X208242Y196046D02*
X201574Y196046D01*
X201574Y202714D01*
X208242Y202714D01*
X208242Y198158D02*
X201574Y198158D01*
X201574Y200270D02*
X208242Y200270D01*
X208242Y202382D02*
X201574Y202382D01*
X186538Y286720D02*
X186538Y293388D01*
X186538Y286720D02*
X179870Y286720D01*
X179870Y293388D01*
X186538Y293388D01*
X186538Y288832D02*
X179870Y288832D01*
X179870Y290944D02*
X186538Y290944D01*
X186538Y293056D02*
X179870Y293056D01*
X186538Y301960D02*
X186538Y308628D01*
X186538Y301960D02*
X179870Y301960D01*
X179870Y308628D01*
X186538Y308628D01*
X186538Y304072D02*
X179870Y304072D01*
X179870Y306184D02*
X186538Y306184D01*
X186538Y308296D02*
X179870Y308296D01*
M02*
