M48
;GenerationSoftware,Autodesk,EAGLE,9.1.1*%
;CreationDate,2018-09-12T11:11:26Z*%
FMAT,2
ICI,OFF
METRIC,TZ,000.000
T5C0.305
T4C0.700
T3C0.889
T2C0.900
T1C3.000
%
G90
M71
T1
X23090Y2540
X2770Y2540
T2
X5922Y48412
T3
X18010Y53094
X24360Y32270
X1500Y47510
X24360Y34810
X24360Y37350
X24360Y39890
X24360Y42430
X24360Y44970
X24360Y47510
X7850Y53094
X10390Y53094
X12930Y53094
X15470Y53094
X1500Y17030
X1500Y19570
X1500Y22110
X1500Y24650
X1500Y27190
X1500Y29730
X1500Y32270
X1500Y34810
X1500Y37350
X1500Y39890
X1500Y42430
X1500Y44970
X24360Y17030
X24360Y19570
X24360Y22110
X24360Y24650
X24360Y27190
X24360Y29730
T4
X10314Y4115
X10441Y4115
X15292Y4115
X15546Y4115
X15394Y4115
X10568Y4115
X16435Y1676
X9425Y1168
X9425Y1397
X16435Y1168
X16435Y1422
X9425Y1676
T5
X3200Y38481
X2946Y36195
X14630Y37211
X9957Y13843
X13945Y25171
X9195Y20955
X9195Y19939
X9195Y18923
X5817Y28473
X14326Y23393
X8540Y13951
X7010Y17526
X7010Y27838
X5944Y30429
X6045Y44399
X2769Y8306
X19456Y30505
X21514Y19939
X19863Y11989
X9144Y10973
X14935Y26162
X21745Y45591
X12189Y30204
X8236Y35350
X9830Y25933
X7264Y35204
X9017Y25705
X7976Y26594
X13945Y26187
X14224Y22581
X13894Y15215
X5918Y41377
X8204Y23647
X13792Y30912
X14580Y29642
X5994Y42393
X4902Y25883
X4775Y24994
X4801Y24079
X4775Y23216
X4775Y22352
X4750Y21387
X15545Y38405
X11582Y7214
X14580Y38329
X17094Y9322
X15570Y23470
X6020Y10287
X16510Y24181
X17729Y8306
X6020Y9296
X1118Y13183
X1041Y14605
X9779Y15519
X14249Y10947
X10846Y15494
X14986Y11354
X864Y20853
X889Y25933
X889Y33553
X864Y36093
X889Y38633
X864Y41173
X889Y43713
X889Y46253
X24994Y46253
X24968Y43713
X24968Y41148
X24994Y33528
X24917Y49352
X16739Y53645
X2159Y25933
X7976Y24740
X16662Y25730
X24994Y38633
X24994Y36093
X24994Y30988
X24994Y25908
X24994Y23368
X24994Y20828
X8026Y10973
X6020Y11201
X1473Y7366
X7024Y33311
X1448Y8255
X2413Y18491
X13056Y33376
X14580Y33376
X16129Y33376
X14707Y30886
X24994Y28473
X9195Y21971
X24486Y7366
X24486Y8382
X5994Y43307
X5994Y31344
X20472Y27915
X19431Y26492
X18618Y43459
X18618Y41427
X3454Y43561
X3454Y41021
M30