G04 EAGLE Gerber RS-274X export*
G75*
%MOMM*%
%FSLAX34Y34*%
%LPD*%
%AMOC8*
5,1,8,0,0,1.08239X$1,22.5*%
G01*
%ADD10C,0.025400*%
%ADD11C,0.000000*%


D10*
X0Y0D02*
X258600Y0D01*
X258600Y545000D01*
X0Y545000D01*
X0Y0D01*
D11*
X12700Y25400D02*
X12705Y25768D01*
X12718Y26136D01*
X12741Y26503D01*
X12772Y26870D01*
X12813Y27236D01*
X12862Y27601D01*
X12921Y27964D01*
X12988Y28326D01*
X13064Y28687D01*
X13150Y29045D01*
X13243Y29401D01*
X13346Y29754D01*
X13457Y30105D01*
X13577Y30453D01*
X13705Y30798D01*
X13842Y31140D01*
X13987Y31479D01*
X14140Y31813D01*
X14302Y32144D01*
X14471Y32471D01*
X14649Y32793D01*
X14834Y33112D01*
X15027Y33425D01*
X15228Y33734D01*
X15436Y34037D01*
X15652Y34335D01*
X15875Y34628D01*
X16105Y34916D01*
X16342Y35198D01*
X16586Y35473D01*
X16836Y35743D01*
X17093Y36007D01*
X17357Y36264D01*
X17627Y36514D01*
X17902Y36758D01*
X18184Y36995D01*
X18472Y37225D01*
X18765Y37448D01*
X19063Y37664D01*
X19366Y37872D01*
X19675Y38073D01*
X19988Y38266D01*
X20307Y38451D01*
X20629Y38629D01*
X20956Y38798D01*
X21287Y38960D01*
X21621Y39113D01*
X21960Y39258D01*
X22302Y39395D01*
X22647Y39523D01*
X22995Y39643D01*
X23346Y39754D01*
X23699Y39857D01*
X24055Y39950D01*
X24413Y40036D01*
X24774Y40112D01*
X25136Y40179D01*
X25499Y40238D01*
X25864Y40287D01*
X26230Y40328D01*
X26597Y40359D01*
X26964Y40382D01*
X27332Y40395D01*
X27700Y40400D01*
X28068Y40395D01*
X28436Y40382D01*
X28803Y40359D01*
X29170Y40328D01*
X29536Y40287D01*
X29901Y40238D01*
X30264Y40179D01*
X30626Y40112D01*
X30987Y40036D01*
X31345Y39950D01*
X31701Y39857D01*
X32054Y39754D01*
X32405Y39643D01*
X32753Y39523D01*
X33098Y39395D01*
X33440Y39258D01*
X33779Y39113D01*
X34113Y38960D01*
X34444Y38798D01*
X34771Y38629D01*
X35093Y38451D01*
X35412Y38266D01*
X35725Y38073D01*
X36034Y37872D01*
X36337Y37664D01*
X36635Y37448D01*
X36928Y37225D01*
X37216Y36995D01*
X37498Y36758D01*
X37773Y36514D01*
X38043Y36264D01*
X38307Y36007D01*
X38564Y35743D01*
X38814Y35473D01*
X39058Y35198D01*
X39295Y34916D01*
X39525Y34628D01*
X39748Y34335D01*
X39964Y34037D01*
X40172Y33734D01*
X40373Y33425D01*
X40566Y33112D01*
X40751Y32793D01*
X40929Y32471D01*
X41098Y32144D01*
X41260Y31813D01*
X41413Y31479D01*
X41558Y31140D01*
X41695Y30798D01*
X41823Y30453D01*
X41943Y30105D01*
X42054Y29754D01*
X42157Y29401D01*
X42250Y29045D01*
X42336Y28687D01*
X42412Y28326D01*
X42479Y27964D01*
X42538Y27601D01*
X42587Y27236D01*
X42628Y26870D01*
X42659Y26503D01*
X42682Y26136D01*
X42695Y25768D01*
X42700Y25400D01*
X42695Y25032D01*
X42682Y24664D01*
X42659Y24297D01*
X42628Y23930D01*
X42587Y23564D01*
X42538Y23199D01*
X42479Y22836D01*
X42412Y22474D01*
X42336Y22113D01*
X42250Y21755D01*
X42157Y21399D01*
X42054Y21046D01*
X41943Y20695D01*
X41823Y20347D01*
X41695Y20002D01*
X41558Y19660D01*
X41413Y19321D01*
X41260Y18987D01*
X41098Y18656D01*
X40929Y18329D01*
X40751Y18007D01*
X40566Y17688D01*
X40373Y17375D01*
X40172Y17066D01*
X39964Y16763D01*
X39748Y16465D01*
X39525Y16172D01*
X39295Y15884D01*
X39058Y15602D01*
X38814Y15327D01*
X38564Y15057D01*
X38307Y14793D01*
X38043Y14536D01*
X37773Y14286D01*
X37498Y14042D01*
X37216Y13805D01*
X36928Y13575D01*
X36635Y13352D01*
X36337Y13136D01*
X36034Y12928D01*
X35725Y12727D01*
X35412Y12534D01*
X35093Y12349D01*
X34771Y12171D01*
X34444Y12002D01*
X34113Y11840D01*
X33779Y11687D01*
X33440Y11542D01*
X33098Y11405D01*
X32753Y11277D01*
X32405Y11157D01*
X32054Y11046D01*
X31701Y10943D01*
X31345Y10850D01*
X30987Y10764D01*
X30626Y10688D01*
X30264Y10621D01*
X29901Y10562D01*
X29536Y10513D01*
X29170Y10472D01*
X28803Y10441D01*
X28436Y10418D01*
X28068Y10405D01*
X27700Y10400D01*
X27332Y10405D01*
X26964Y10418D01*
X26597Y10441D01*
X26230Y10472D01*
X25864Y10513D01*
X25499Y10562D01*
X25136Y10621D01*
X24774Y10688D01*
X24413Y10764D01*
X24055Y10850D01*
X23699Y10943D01*
X23346Y11046D01*
X22995Y11157D01*
X22647Y11277D01*
X22302Y11405D01*
X21960Y11542D01*
X21621Y11687D01*
X21287Y11840D01*
X20956Y12002D01*
X20629Y12171D01*
X20307Y12349D01*
X19988Y12534D01*
X19675Y12727D01*
X19366Y12928D01*
X19063Y13136D01*
X18765Y13352D01*
X18472Y13575D01*
X18184Y13805D01*
X17902Y14042D01*
X17627Y14286D01*
X17357Y14536D01*
X17093Y14793D01*
X16836Y15057D01*
X16586Y15327D01*
X16342Y15602D01*
X16105Y15884D01*
X15875Y16172D01*
X15652Y16465D01*
X15436Y16763D01*
X15228Y17066D01*
X15027Y17375D01*
X14834Y17688D01*
X14649Y18007D01*
X14471Y18329D01*
X14302Y18656D01*
X14140Y18987D01*
X13987Y19321D01*
X13842Y19660D01*
X13705Y20002D01*
X13577Y20347D01*
X13457Y20695D01*
X13346Y21046D01*
X13243Y21399D01*
X13150Y21755D01*
X13064Y22113D01*
X12988Y22474D01*
X12921Y22836D01*
X12862Y23199D01*
X12813Y23564D01*
X12772Y23930D01*
X12741Y24297D01*
X12718Y24664D01*
X12705Y25032D01*
X12700Y25400D01*
X215900Y25400D02*
X215905Y25768D01*
X215918Y26136D01*
X215941Y26503D01*
X215972Y26870D01*
X216013Y27236D01*
X216062Y27601D01*
X216121Y27964D01*
X216188Y28326D01*
X216264Y28687D01*
X216350Y29045D01*
X216443Y29401D01*
X216546Y29754D01*
X216657Y30105D01*
X216777Y30453D01*
X216905Y30798D01*
X217042Y31140D01*
X217187Y31479D01*
X217340Y31813D01*
X217502Y32144D01*
X217671Y32471D01*
X217849Y32793D01*
X218034Y33112D01*
X218227Y33425D01*
X218428Y33734D01*
X218636Y34037D01*
X218852Y34335D01*
X219075Y34628D01*
X219305Y34916D01*
X219542Y35198D01*
X219786Y35473D01*
X220036Y35743D01*
X220293Y36007D01*
X220557Y36264D01*
X220827Y36514D01*
X221102Y36758D01*
X221384Y36995D01*
X221672Y37225D01*
X221965Y37448D01*
X222263Y37664D01*
X222566Y37872D01*
X222875Y38073D01*
X223188Y38266D01*
X223507Y38451D01*
X223829Y38629D01*
X224156Y38798D01*
X224487Y38960D01*
X224821Y39113D01*
X225160Y39258D01*
X225502Y39395D01*
X225847Y39523D01*
X226195Y39643D01*
X226546Y39754D01*
X226899Y39857D01*
X227255Y39950D01*
X227613Y40036D01*
X227974Y40112D01*
X228336Y40179D01*
X228699Y40238D01*
X229064Y40287D01*
X229430Y40328D01*
X229797Y40359D01*
X230164Y40382D01*
X230532Y40395D01*
X230900Y40400D01*
X231268Y40395D01*
X231636Y40382D01*
X232003Y40359D01*
X232370Y40328D01*
X232736Y40287D01*
X233101Y40238D01*
X233464Y40179D01*
X233826Y40112D01*
X234187Y40036D01*
X234545Y39950D01*
X234901Y39857D01*
X235254Y39754D01*
X235605Y39643D01*
X235953Y39523D01*
X236298Y39395D01*
X236640Y39258D01*
X236979Y39113D01*
X237313Y38960D01*
X237644Y38798D01*
X237971Y38629D01*
X238293Y38451D01*
X238612Y38266D01*
X238925Y38073D01*
X239234Y37872D01*
X239537Y37664D01*
X239835Y37448D01*
X240128Y37225D01*
X240416Y36995D01*
X240698Y36758D01*
X240973Y36514D01*
X241243Y36264D01*
X241507Y36007D01*
X241764Y35743D01*
X242014Y35473D01*
X242258Y35198D01*
X242495Y34916D01*
X242725Y34628D01*
X242948Y34335D01*
X243164Y34037D01*
X243372Y33734D01*
X243573Y33425D01*
X243766Y33112D01*
X243951Y32793D01*
X244129Y32471D01*
X244298Y32144D01*
X244460Y31813D01*
X244613Y31479D01*
X244758Y31140D01*
X244895Y30798D01*
X245023Y30453D01*
X245143Y30105D01*
X245254Y29754D01*
X245357Y29401D01*
X245450Y29045D01*
X245536Y28687D01*
X245612Y28326D01*
X245679Y27964D01*
X245738Y27601D01*
X245787Y27236D01*
X245828Y26870D01*
X245859Y26503D01*
X245882Y26136D01*
X245895Y25768D01*
X245900Y25400D01*
X245895Y25032D01*
X245882Y24664D01*
X245859Y24297D01*
X245828Y23930D01*
X245787Y23564D01*
X245738Y23199D01*
X245679Y22836D01*
X245612Y22474D01*
X245536Y22113D01*
X245450Y21755D01*
X245357Y21399D01*
X245254Y21046D01*
X245143Y20695D01*
X245023Y20347D01*
X244895Y20002D01*
X244758Y19660D01*
X244613Y19321D01*
X244460Y18987D01*
X244298Y18656D01*
X244129Y18329D01*
X243951Y18007D01*
X243766Y17688D01*
X243573Y17375D01*
X243372Y17066D01*
X243164Y16763D01*
X242948Y16465D01*
X242725Y16172D01*
X242495Y15884D01*
X242258Y15602D01*
X242014Y15327D01*
X241764Y15057D01*
X241507Y14793D01*
X241243Y14536D01*
X240973Y14286D01*
X240698Y14042D01*
X240416Y13805D01*
X240128Y13575D01*
X239835Y13352D01*
X239537Y13136D01*
X239234Y12928D01*
X238925Y12727D01*
X238612Y12534D01*
X238293Y12349D01*
X237971Y12171D01*
X237644Y12002D01*
X237313Y11840D01*
X236979Y11687D01*
X236640Y11542D01*
X236298Y11405D01*
X235953Y11277D01*
X235605Y11157D01*
X235254Y11046D01*
X234901Y10943D01*
X234545Y10850D01*
X234187Y10764D01*
X233826Y10688D01*
X233464Y10621D01*
X233101Y10562D01*
X232736Y10513D01*
X232370Y10472D01*
X232003Y10441D01*
X231636Y10418D01*
X231268Y10405D01*
X230900Y10400D01*
X230532Y10405D01*
X230164Y10418D01*
X229797Y10441D01*
X229430Y10472D01*
X229064Y10513D01*
X228699Y10562D01*
X228336Y10621D01*
X227974Y10688D01*
X227613Y10764D01*
X227255Y10850D01*
X226899Y10943D01*
X226546Y11046D01*
X226195Y11157D01*
X225847Y11277D01*
X225502Y11405D01*
X225160Y11542D01*
X224821Y11687D01*
X224487Y11840D01*
X224156Y12002D01*
X223829Y12171D01*
X223507Y12349D01*
X223188Y12534D01*
X222875Y12727D01*
X222566Y12928D01*
X222263Y13136D01*
X221965Y13352D01*
X221672Y13575D01*
X221384Y13805D01*
X221102Y14042D01*
X220827Y14286D01*
X220557Y14536D01*
X220293Y14793D01*
X220036Y15057D01*
X219786Y15327D01*
X219542Y15602D01*
X219305Y15884D01*
X219075Y16172D01*
X218852Y16465D01*
X218636Y16763D01*
X218428Y17066D01*
X218227Y17375D01*
X218034Y17688D01*
X217849Y18007D01*
X217671Y18329D01*
X217502Y18656D01*
X217340Y18987D01*
X217187Y19321D01*
X217042Y19660D01*
X216905Y20002D01*
X216777Y20347D01*
X216657Y20695D01*
X216546Y21046D01*
X216443Y21399D01*
X216350Y21755D01*
X216264Y22113D01*
X216188Y22474D01*
X216121Y22836D01*
X216062Y23199D01*
X216013Y23564D01*
X215972Y23930D01*
X215941Y24297D01*
X215918Y24664D01*
X215905Y25032D01*
X215900Y25400D01*
M02*
