G04 EAGLE Gerber RS-274X export*
G75*
%MOMM*%
%FSLAX34Y34*%
%LPD*%
%AMOC8*
5,1,8,0,0,1.08239X$1,22.5*%
G01*
%ADD10C,3.101600*%
%ADD11C,1.309600*%
%ADD12C,1.371600*%
%ADD13R,1.752600X1.752600*%
%ADD14C,1.752600*%
%ADD15R,1.371600X0.736600*%
%ADD16C,0.203200*%
%ADD17C,1.451600*%


D10*
X27700Y25400D03*
X230900Y25400D03*
D11*
X103138Y41148D03*
X105678Y41148D03*
X104408Y41148D03*
X152922Y41148D03*
X155462Y41148D03*
X153938Y41148D03*
D12*
X94248Y16764D03*
X164352Y16764D03*
X94248Y11684D03*
X94248Y13970D03*
X164352Y11684D03*
X164352Y14224D03*
D13*
X15000Y170300D03*
D14*
X15000Y195700D03*
X15000Y221100D03*
X15000Y246500D03*
X15000Y271900D03*
X15000Y297300D03*
X15000Y322700D03*
X15000Y348100D03*
X15000Y373500D03*
X15000Y398900D03*
X15000Y424300D03*
X15000Y449700D03*
X15000Y475100D03*
D13*
X243600Y170300D03*
D14*
X243600Y195700D03*
X243600Y221100D03*
X243600Y246500D03*
X243600Y271900D03*
X243600Y297300D03*
X243600Y322700D03*
X243600Y348100D03*
X243600Y373500D03*
X243600Y398900D03*
X243600Y424300D03*
X243600Y449700D03*
X243600Y475100D03*
D13*
X78500Y530940D03*
D14*
X103900Y530940D03*
X129300Y530940D03*
X154700Y530940D03*
X180100Y530940D03*
D15*
X25106Y147458D03*
X25106Y139330D03*
X25106Y131202D03*
D16*
X25106Y130440D02*
X25106Y147966D01*
D17*
X59219Y484124D03*
M02*
